<svg xmlns="http://www.w3.org/2000/svg" xmlns:xlink="http://www.w3.org/1999/xlink" xmlns:s="https://github.com/nturley/netlistsvg" width="1401" height="468">
  <style>svg {
    stroke:#000;
    fill:none;
  }
  text {
    fill:#000;
    stroke:none;
    font-size:10px;
    font-weight: bold;
    font-family: "Courier New", monospace;
  }
  .nodelabel {
    text-anchor: middle;
  }
  .inputPortLabel {
    text-anchor: end;
  }
  .splitjoinBody {
    fill:#000;
  }</style>
  <g s:type="generic" transform="translate(770,232)" s:width="30" s:height="40" id="cell_pcControl">
    <text x="15" y="-4" class="nodelabel cell_pcControl" s:attribute="ref">PCControl</text>
    <rect width="30" height="60" s:generic="body" class="cell_pcControl"/>
    <g transform="translate(0,10)" s:x="0" s:y="10" s:pid="in0" id="port_pcControl~aluResult">
      <text x="-3" y="-4" class="inputPortLabel cell_pcControl">aluResult</text>
    </g>
    <g transform="translate(0,30)" s:x="0" s:y="10" s:pid="in0" id="port_pcControl~instruction">
      <text x="-3" y="-4" class="inputPortLabel cell_pcControl">instruction</text>
    </g>
    <g transform="translate(0,50)" s:x="0" s:y="10" s:pid="in0" id="port_pcControl~opcode">
      <text x="-3" y="-4" class="inputPortLabel cell_pcControl">opcode</text>
    </g>
    <g transform="translate(30,10)" s:x="30" s:y="10" s:pid="out0" id="port_pcControl~pcSourceControl">
      <text x="5" y="-4" style="fill:#000; stroke:none" class="cell_pcControl">pcSourceControl</text>
    </g>
  </g>
  <g s:type="generic" transform="translate(306,138)" s:width="30" s:height="40" id="cell_pcNext">
    <text x="15" y="-4" class="nodelabel cell_pcNext" s:attribute="ref">PCNext</text>
    <rect width="30" height="60" s:generic="body" class="cell_pcNext"/>
    <g transform="translate(0,10)" s:x="0" s:y="10" s:pid="in0" id="port_pcNext~in">
      <text x="-3" y="-4" class="inputPortLabel cell_pcNext">in</text>
    </g>
    <g transform="translate(0,30)" s:x="0" s:y="10" s:pid="in0" id="port_pcNext~instruction">
      <text x="-3" y="-4" class="inputPortLabel cell_pcNext">instruction</text>
    </g>
    <g transform="translate(30,10)" s:x="30" s:y="10" s:pid="out0" id="port_pcNext~pcPlusBOffset">
      <text x="5" y="-4" style="fill:#000; stroke:none" class="cell_pcNext">pcPlusBOffset</text>
    </g>
    <g transform="translate(30,30)" s:x="30" s:y="10" s:pid="out0" id="port_pcNext~pcPlusJal">
      <text x="5" y="-4" style="fill:#000; stroke:none" class="cell_pcNext">pcPlusJal</text>
    </g>
    <g transform="translate(30,50)" s:x="30" s:y="10" s:pid="out0" id="port_pcNext~pc_next">
      <text x="5" y="-4" style="fill:#000; stroke:none" class="cell_pcNext">pc_next</text>
    </g>
  </g>
  <g s:type="generic" transform="translate(1018,158)" s:width="30" s:height="40" id="cell_pcSource">
    <text x="15" y="-4" class="nodelabel cell_pcSource" s:attribute="ref">PCSource</text>
    <rect width="30" height="80" s:generic="body" class="cell_pcSource"/>
    <g transform="translate(0,10)" s:x="0" s:y="10" s:pid="in0" id="port_pcSource~pcPlusBOffset">
      <text x="-3" y="-4" class="inputPortLabel cell_pcSource">pcPlusBOffset</text>
    </g>
    <g transform="translate(0,30)" s:x="0" s:y="10" s:pid="in0" id="port_pcSource~pcPlusFour">
      <text x="-3" y="-4" class="inputPortLabel cell_pcSource">pcPlusFour</text>
    </g>
    <g transform="translate(0,50)" s:x="0" s:y="10" s:pid="in0" id="port_pcSource~pcPlusJal">
      <text x="-3" y="-4" class="inputPortLabel cell_pcSource">pcPlusJal</text>
    </g>
    <g transform="translate(0,70)" s:x="0" s:y="10" s:pid="in0" id="port_pcSource~pcSourceControl">
      <text x="-3" y="-4" class="inputPortLabel cell_pcSource">pcSourceControl</text>
    </g>
    <g transform="translate(30,10)" s:x="30" s:y="10" s:pid="out0" id="port_pcSource~pcResult">
      <text x="5" y="-4" style="fill:#000; stroke:none" class="cell_pcSource">pcResult</text>
    </g>
  </g>
  <g s:type="generic" transform="translate(1164,138)" s:width="30" s:height="40" id="cell_programCounter">
    <text x="15" y="-4" class="nodelabel cell_programCounter" s:attribute="ref">ProgramCounter</text>
    <rect width="30" height="60" s:generic="body" class="cell_programCounter"/>
    <g transform="translate(0,10)" s:x="0" s:y="10" s:pid="in0" id="port_programCounter~clk">
      <text x="-3" y="-4" class="inputPortLabel cell_programCounter">clk</text>
    </g>
    <g transform="translate(0,30)" s:x="0" s:y="10" s:pid="in0" id="port_programCounter~pc_in">
      <text x="-3" y="-4" class="inputPortLabel cell_programCounter">pc_in</text>
    </g>
    <g transform="translate(0,50)" s:x="0" s:y="10" s:pid="in0" id="port_programCounter~reset">
      <text x="-3" y="-4" class="inputPortLabel cell_programCounter">reset</text>
    </g>
    <g transform="translate(30,10)" s:x="30" s:y="10" s:pid="out0" id="port_programCounter~pc_out">
      <text x="5" y="-4" style="fill:#000; stroke:none" class="cell_programCounter">pc_out</text>
    </g>
  </g>
  <g s:type="generic" transform="translate(120,158)" s:width="30" s:height="40" id="cell_program_memory">
    <text x="15" y="-4" class="nodelabel cell_program_memory" s:attribute="ref">$mem_v2</text>
    <rect width="30" height="180" s:generic="body" class="cell_program_memory"/>
    <g transform="translate(0,10)" s:x="0" s:y="10" s:pid="in0" id="port_program_memory~RD_ADDR">
      <text x="-3" y="-4" class="inputPortLabel cell_program_memory">RD_ADDR</text>
    </g>
    <g transform="translate(0,30)" s:x="0" s:y="10" s:pid="in0" id="port_program_memory~RD_ARST">
      <text x="-3" y="-4" class="inputPortLabel cell_program_memory">RD_ARST</text>
    </g>
    <g transform="translate(0,50)" s:x="0" s:y="10" s:pid="in0" id="port_program_memory~RD_CLK">
      <text x="-3" y="-4" class="inputPortLabel cell_program_memory">RD_CLK</text>
    </g>
    <g transform="translate(0,70)" s:x="0" s:y="10" s:pid="in0" id="port_program_memory~RD_EN">
      <text x="-3" y="-4" class="inputPortLabel cell_program_memory">RD_EN</text>
    </g>
    <g transform="translate(0,90)" s:x="0" s:y="10" s:pid="in0" id="port_program_memory~RD_SRST">
      <text x="-3" y="-4" class="inputPortLabel cell_program_memory">RD_SRST</text>
    </g>
    <g transform="translate(0,110)" s:x="0" s:y="10" s:pid="in0" id="port_program_memory~WR_ADDR">
      <text x="-3" y="-4" class="inputPortLabel cell_program_memory">WR_ADDR</text>
    </g>
    <g transform="translate(0,130)" s:x="0" s:y="10" s:pid="in0" id="port_program_memory~WR_CLK">
      <text x="-3" y="-4" class="inputPortLabel cell_program_memory">WR_CLK</text>
    </g>
    <g transform="translate(0,150)" s:x="0" s:y="10" s:pid="in0" id="port_program_memory~WR_DATA">
      <text x="-3" y="-4" class="inputPortLabel cell_program_memory">WR_DATA</text>
    </g>
    <g transform="translate(0,170)" s:x="0" s:y="10" s:pid="in0" id="port_program_memory~WR_EN">
      <text x="-3" y="-4" class="inputPortLabel cell_program_memory">WR_EN</text>
    </g>
    <g transform="translate(30,10)" s:x="30" s:y="10" s:pid="out0" id="port_program_memory~RD_DATA">
      <text x="5" y="-4" style="fill:#000; stroke:none" class="cell_program_memory">RD_DATA</text>
    </g>
  </g>
  <g s:type="generic" transform="translate(535,232)" s:width="30" s:height="40" id="cell_single_instr">
    <text x="15" y="-4" class="nodelabel cell_single_instr" s:attribute="ref">SingleInstruction</text>
    <rect width="30" height="100" s:generic="body" class="cell_single_instr"/>
    <g transform="translate(0,10)" s:x="0" s:y="10" s:pid="in0" id="port_single_instr~bus_read_data">
      <text x="-3" y="-4" class="inputPortLabel cell_single_instr">bus_read_data</text>
    </g>
    <g transform="translate(0,30)" s:x="0" s:y="10" s:pid="in0" id="port_single_instr~clk">
      <text x="-3" y="-4" class="inputPortLabel cell_single_instr">clk</text>
    </g>
    <g transform="translate(0,50)" s:x="0" s:y="10" s:pid="in0" id="port_single_instr~instruction">
      <text x="-3" y="-4" class="inputPortLabel cell_single_instr">instruction</text>
    </g>
    <g transform="translate(0,70)" s:x="0" s:y="10" s:pid="in0" id="port_single_instr~pcNext">
      <text x="-3" y="-4" class="inputPortLabel cell_single_instr">pcNext</text>
    </g>
    <g transform="translate(30,10)" s:x="30" s:y="10" s:pid="out0" id="port_single_instr~aluResult">
      <text x="5" y="-4" style="fill:#000; stroke:none" class="cell_single_instr">aluResult</text>
    </g>
    <g transform="translate(30,30)" s:x="30" s:y="10" s:pid="out0" id="port_single_instr~bus_address">
      <text x="5" y="-4" style="fill:#000; stroke:none" class="cell_single_instr">bus_address</text>
    </g>
    <g transform="translate(30,50)" s:x="30" s:y="10" s:pid="out0" id="port_single_instr~bus_wr_data">
      <text x="5" y="-4" style="fill:#000; stroke:none" class="cell_single_instr">bus_wr_data</text>
    </g>
    <g transform="translate(30,70)" s:x="30" s:y="10" s:pid="out0" id="port_single_instr~bus_wr_enable">
      <text x="5" y="-4" style="fill:#000; stroke:none" class="cell_single_instr">bus_wr_enable</text>
    </g>
    <g transform="translate(30,90)" s:x="30" s:y="10" s:pid="out0" id="port_single_instr~bus_write_length">
      <text x="5" y="-4" style="fill:#000; stroke:none" class="cell_single_instr">bus_write_length</text>
    </g>
  </g>
  <g s:type="inputExt" transform="translate(306,73)" s:width="30" s:height="20" id="cell_clk">
    <text x="15" y="-4" class="nodelabel cell_clk" s:attribute="ref">clk</text>
    <s:alias val="$_inputExt_"/>
    <path d="M0,0 L0,20 L15,20 L30,10 L15,0 Z" class="cell_clk"/>
    <g s:x="28" s:y="10" s:pid="Y"/>
  </g>
  <g s:type="inputExt" transform="translate(1018,286)" s:width="30" s:height="20" id="cell_reset">
    <text x="15" y="-4" class="nodelabel cell_reset" s:attribute="ref">reset</text>
    <s:alias val="$_inputExt_"/>
    <path d="M0,0 L0,20 L15,20 L30,10 L15,0 Z" class="cell_reset"/>
    <g s:x="28" s:y="10" s:pid="Y"/>
  </g>
  <g s:type="outputExt" transform="translate(1283,32)" s:width="30" s:height="20" id="cell_bus_address">
    <text x="15" y="-4" class="nodelabel cell_bus_address" s:attribute="ref">bus_address</text>
    <s:alias val="$_outputExt_"/>
    <path d="M30,0 L30,20 L15,20 L0,10 L15,0 Z" class="cell_bus_address"/>
    <g s:x="0" s:y="10" s:pid="A"/>
  </g>
  <g s:type="outputExt" transform="translate(1283,306)" s:width="30" s:height="20" id="cell_bus_wr_data">
    <text x="15" y="-4" class="nodelabel cell_bus_wr_data" s:attribute="ref">bus_wr_data</text>
    <s:alias val="$_outputExt_"/>
    <path d="M30,0 L30,20 L15,20 L0,10 L15,0 Z" class="cell_bus_wr_data"/>
    <g s:x="0" s:y="10" s:pid="A"/>
  </g>
  <g s:type="inputExt" transform="translate(306,232.5)" s:width="30" s:height="20" id="cell_bus_read_data">
    <text x="15" y="-4" class="nodelabel cell_bus_read_data" s:attribute="ref">bus_read_data</text>
    <s:alias val="$_inputExt_"/>
    <path d="M0,0 L0,20 L15,20 L30,10 L15,0 Z" class="cell_bus_read_data"/>
    <g s:x="28" s:y="10" s:pid="Y"/>
  </g>
  <g s:type="outputExt" transform="translate(1283,436)" s:width="30" s:height="20" id="cell_bus_write_length">
    <text x="15" y="-4" class="nodelabel cell_bus_write_length" s:attribute="ref">bus_write_length</text>
    <s:alias val="$_outputExt_"/>
    <path d="M30,0 L30,20 L15,20 L0,10 L15,0 Z" class="cell_bus_write_length"/>
    <g s:x="0" s:y="10" s:pid="A"/>
  </g>
  <g s:type="outputExt" transform="translate(1283,371)" s:width="30" s:height="20" id="cell_bus_wr_enable">
    <text x="15" y="-4" class="nodelabel cell_bus_wr_enable" s:attribute="ref">bus_wr_enable</text>
    <s:alias val="$_outputExt_"/>
    <path d="M30,0 L30,20 L15,20 L0,10 L15,0 Z" class="cell_bus_wr_enable"/>
    <g s:x="0" s:y="10" s:pid="A"/>
  </g>
  <g s:type="constant" transform="translate(12,148.5)" s:width="30" s:height="20" id="cell_0">
    <text x="15" y="-4" class="nodelabel cell_0" s:attribute="ref">0</text>
    <s:alias val="$_constant_"/>
    <rect width="30" height="20" class="cell_0"/>
    <g s:x="30" s:y="10" s:pid="Y"/>
  </g>
  <g s:type="constant" transform="translate(12,213.5)" s:width="30" s:height="20" id="cell_1">
    <text x="15" y="-4" class="nodelabel cell_1" s:attribute="ref">1</text>
    <s:alias val="$_constant_"/>
    <rect width="30" height="20" class="cell_1"/>
    <g s:x="30" s:y="10" s:pid="Y"/>
  </g>
  <g s:type="split" transform="translate(560,370)" s:width="5" s:height="40" id="cell_$split$,136,137,138,139,140,141,142,143,144,145,146,147,148,149,150,151,152,153,154,155,156,157,158,159,160,161,162,163,164,165,166,167,">
    <rect width="5" height="20" class="splitjoinBody" s:generic="body"/>
    <s:alias val="$_split_"/>
    <g s:x="0" s:y="20" s:pid="in"/>
    <g transform="translate(4,10)" s:x="4" s:y="10" s:pid="out0">
      <text x="5" y="-4">0:6</text>
    </g>
  </g>
  <g s:type="split" transform="translate(1283,87)" s:width="5" s:height="40" id="cell_$split$,170,171,172,173,174,175,176,177,178,179,180,181,182,183,184,185,186,187,188,189,190,191,192,193,194,195,196,197,198,199,200,201,">
    <rect width="5" height="20" class="splitjoinBody" s:generic="body"/>
    <s:alias val="$_split_"/>
    <g s:x="0" s:y="20" s:pid="in"/>
    <g transform="translate(4,10)" s:x="4" s:y="10" s:pid="out0">
      <text x="5" y="-4">2:11</text>
    </g>
  </g>
  <line x1="566" x2="770" y1="242.5" y2="242.5" class="net_104,105,106,107,108,109,110,111,112,113,114,115,116,117,118,119,120,121,122,123,124,125,126,127,128,129,130,131,132,133,134,135"/>
  <line x1="151" x2="214" y1="168.5" y2="168.5" class="net_136,137,138,139,140,141,142,143,144,145,146,147,148,149,150,151,152,153,154,155,156,157,158,159,160,161,162,163,164,165,166,167"/>
  <line x1="214" x2="214" y1="168.5" y2="211" class="net_136,137,138,139,140,141,142,143,144,145,146,147,148,149,150,151,152,153,154,155,156,157,158,159,160,161,162,163,164,165,166,167"/>
  <line x1="214" x2="683" y1="211" y2="211" class="net_136,137,138,139,140,141,142,143,144,145,146,147,148,149,150,151,152,153,154,155,156,157,158,159,160,161,162,163,164,165,166,167"/>
  <line x1="683" x2="683" y1="211" y2="262.5" class="net_136,137,138,139,140,141,142,143,144,145,146,147,148,149,150,151,152,153,154,155,156,157,158,159,160,161,162,163,164,165,166,167"/>
  <circle cx="214" cy="168.5" r="2" style="fill:#000" class="net_136,137,138,139,140,141,142,143,144,145,146,147,148,149,150,151,152,153,154,155,156,157,158,159,160,161,162,163,164,165,166,167"/>
  <circle cx="214" cy="211" r="2" style="fill:#000" class="net_136,137,138,139,140,141,142,143,144,145,146,147,148,149,150,151,152,153,154,155,156,157,158,159,160,161,162,163,164,165,166,167"/>
  <line x1="683" x2="770" y1="262.5" y2="262.5" class="net_136,137,138,139,140,141,142,143,144,145,146,147,148,149,150,151,152,153,154,155,156,157,158,159,160,161,162,163,164,165,166,167"/>
  <line x1="151" x2="306" y1="168.5" y2="168.5" class="net_136,137,138,139,140,141,142,143,144,145,146,147,148,149,150,151,152,153,154,155,156,157,158,159,160,161,162,163,164,165,166,167"/>
  <line x1="151" x2="214" y1="168.5" y2="168.5" class="net_136,137,138,139,140,141,142,143,144,145,146,147,148,149,150,151,152,153,154,155,156,157,158,159,160,161,162,163,164,165,166,167"/>
  <line x1="214" x2="214" y1="168.5" y2="403" class="net_136,137,138,139,140,141,142,143,144,145,146,147,148,149,150,151,152,153,154,155,156,157,158,159,160,161,162,163,164,165,166,167"/>
  <line x1="214" x2="436" y1="403" y2="403" class="net_136,137,138,139,140,141,142,143,144,145,146,147,148,149,150,151,152,153,154,155,156,157,158,159,160,161,162,163,164,165,166,167"/>
  <line x1="436" x2="436" y1="403" y2="282.5" class="net_136,137,138,139,140,141,142,143,144,145,146,147,148,149,150,151,152,153,154,155,156,157,158,159,160,161,162,163,164,165,166,167"/>
  <circle cx="436" cy="403" r="2" style="fill:#000" class="net_136,137,138,139,140,141,142,143,144,145,146,147,148,149,150,151,152,153,154,155,156,157,158,159,160,161,162,163,164,165,166,167"/>
  <line x1="436" x2="535" y1="282.5" y2="282.5" class="net_136,137,138,139,140,141,142,143,144,145,146,147,148,149,150,151,152,153,154,155,156,157,158,159,160,161,162,163,164,165,166,167"/>
  <line x1="151" x2="214" y1="168.5" y2="168.5" class="net_136,137,138,139,140,141,142,143,144,145,146,147,148,149,150,151,152,153,154,155,156,157,158,159,160,161,162,163,164,165,166,167"/>
  <line x1="214" x2="214" y1="168.5" y2="403" class="net_136,137,138,139,140,141,142,143,144,145,146,147,148,149,150,151,152,153,154,155,156,157,158,159,160,161,162,163,164,165,166,167"/>
  <line x1="214" x2="560.5" y1="403" y2="403" class="net_136,137,138,139,140,141,142,143,144,145,146,147,148,149,150,151,152,153,154,155,156,157,158,159,160,161,162,163,164,165,166,167"/>
  <line x1="560.5" x2="560.5" y1="403" y2="391" class="net_136,137,138,139,140,141,142,143,144,145,146,147,148,149,150,151,152,153,154,155,156,157,158,159,160,161,162,163,164,165,166,167"/>
  <line x1="565" x2="683" y1="380.5" y2="380.5" class="net_136,137,138,139,140,141,142"/>
  <line x1="683" x2="683" y1="380.5" y2="282.5" class="net_136,137,138,139,140,141,142"/>
  <line x1="683" x2="770" y1="282.5" y2="282.5" class="net_136,137,138,139,140,141,142"/>
  <line x1="1195" x2="1258" y1="148.5" y2="148.5" class="net_170,171,172,173,174,175,176,177,178,179,180,181,182,183,184,185,186,187,188,189,190,191,192,193,194,195,196,197,198,199,200,201"/>
  <line x1="1258" x2="1258" y1="148.5" y2="53" class="net_170,171,172,173,174,175,176,177,178,179,180,181,182,183,184,185,186,187,188,189,190,191,192,193,194,195,196,197,198,199,200,201"/>
  <line x1="1258" x2="214" y1="53" y2="53" class="net_170,171,172,173,174,175,176,177,178,179,180,181,182,183,184,185,186,187,188,189,190,191,192,193,194,195,196,197,198,199,200,201"/>
  <line x1="214" x2="214" y1="53" y2="148.5" class="net_170,171,172,173,174,175,176,177,178,179,180,181,182,183,184,185,186,187,188,189,190,191,192,193,194,195,196,197,198,199,200,201"/>
  <circle cx="1258" cy="148.5" r="2" style="fill:#000" class="net_170,171,172,173,174,175,176,177,178,179,180,181,182,183,184,185,186,187,188,189,190,191,192,193,194,195,196,197,198,199,200,201"/>
  <line x1="214" x2="306" y1="148.5" y2="148.5" class="net_170,171,172,173,174,175,176,177,178,179,180,181,182,183,184,185,186,187,188,189,190,191,192,193,194,195,196,197,198,199,200,201"/>
  <line x1="1195" x2="1283.5" y1="148.5" y2="148.5" class="net_170,171,172,173,174,175,176,177,178,179,180,181,182,183,184,185,186,187,188,189,190,191,192,193,194,195,196,197,198,199,200,201"/>
  <line x1="1283.5" x2="1283.5" y1="148.5" y2="108" class="net_170,171,172,173,174,175,176,177,178,179,180,181,182,183,184,185,186,187,188,189,190,191,192,193,194,195,196,197,198,199,200,201"/>
  <line x1="337" x2="902" y1="148.5" y2="148.5" class="net_202,203,204,205,206,207,208,209,210,211,212,213,214,215,216,217,218,219,220,221,222,223,224,225,226,227,228,229,230,231,232,233"/>
  <line x1="902" x2="902" y1="148.5" y2="168.5" class="net_202,203,204,205,206,207,208,209,210,211,212,213,214,215,216,217,218,219,220,221,222,223,224,225,226,227,228,229,230,231,232,233"/>
  <line x1="902" x2="1018" y1="168.5" y2="168.5" class="net_202,203,204,205,206,207,208,209,210,211,212,213,214,215,216,217,218,219,220,221,222,223,224,225,226,227,228,229,230,231,232,233"/>
  <line x1="337" x2="1018" y1="188.5" y2="188.5" class="net_266,267,268,269,270,271,272,273,274,275,276,277,278,279,280,281,282,283,284,285,286,287,288,289,290,291,292,293,294,295,296,297"/>
  <line x1="337" x2="426" y1="188.5" y2="188.5" class="net_266,267,268,269,270,271,272,273,274,275,276,277,278,279,280,281,282,283,284,285,286,287,288,289,290,291,292,293,294,295,296,297"/>
  <line x1="426" x2="426" y1="188.5" y2="302.5" class="net_266,267,268,269,270,271,272,273,274,275,276,277,278,279,280,281,282,283,284,285,286,287,288,289,290,291,292,293,294,295,296,297"/>
  <circle cx="426" cy="188.5" r="2" style="fill:#000" class="net_266,267,268,269,270,271,272,273,274,275,276,277,278,279,280,281,282,283,284,285,286,287,288,289,290,291,292,293,294,295,296,297"/>
  <line x1="426" x2="535" y1="302.5" y2="302.5" class="net_266,267,268,269,270,271,272,273,274,275,276,277,278,279,280,281,282,283,284,285,286,287,288,289,290,291,292,293,294,295,296,297"/>
  <line x1="337" x2="436" y1="168.5" y2="168.5" class="net_234,235,236,237,238,239,240,241,242,243,244,245,246,247,248,249,250,251,252,253,254,255,256,257,258,259,260,261,262,263,264,265"/>
  <line x1="436" x2="436" y1="168.5" y2="199.5" class="net_234,235,236,237,238,239,240,241,242,243,244,245,246,247,248,249,250,251,252,253,254,255,256,257,258,259,260,261,262,263,264,265"/>
  <line x1="436" x2="902" y1="199.5" y2="199.5" class="net_234,235,236,237,238,239,240,241,242,243,244,245,246,247,248,249,250,251,252,253,254,255,256,257,258,259,260,261,262,263,264,265"/>
  <line x1="902" x2="902" y1="199.5" y2="208.5" class="net_234,235,236,237,238,239,240,241,242,243,244,245,246,247,248,249,250,251,252,253,254,255,256,257,258,259,260,261,262,263,264,265"/>
  <line x1="902" x2="1018" y1="208.5" y2="208.5" class="net_234,235,236,237,238,239,240,241,242,243,244,245,246,247,248,249,250,251,252,253,254,255,256,257,258,259,260,261,262,263,264,265"/>
  <line x1="801" x2="902" y1="242.5" y2="242.5" class="net_168,169"/>
  <line x1="902" x2="902" y1="242.5" y2="228.5" class="net_168,169"/>
  <line x1="902" x2="1018" y1="228.5" y2="228.5" class="net_168,169"/>
  <line x1="334" x2="1108" y1="83" y2="83" class="net_2"/>
  <line x1="1108" x2="1108" y1="83" y2="148.5" class="net_2"/>
  <line x1="1108" x2="1164" y1="148.5" y2="148.5" class="net_2"/>
  <line x1="334" x2="446" y1="83" y2="83" class="net_2"/>
  <line x1="446" x2="446" y1="83" y2="262.5" class="net_2"/>
  <circle cx="446" cy="83" r="2" style="fill:#000" class="net_2"/>
  <line x1="446" x2="535" y1="262.5" y2="262.5" class="net_2"/>
  <line x1="1049" x2="1164" y1="168.5" y2="168.5" class="net_298,299,300,301,302,303,304,305,306,307,308,309,310,311,312,313,314,315,316,317,318,319,320,321,322,323,324,325,326,327,328,329"/>
  <line x1="1046" x2="1108" y1="296" y2="296" class="net_3"/>
  <line x1="1108" x2="1108" y1="296" y2="188.5" class="net_3"/>
  <line x1="1108" x2="1164" y1="188.5" y2="188.5" class="net_3"/>
  <line x1="1288" x2="1389" y1="97.5" y2="97.5" class="net_172,173,174,175,176,177,178,179,180,181"/>
  <line x1="1389" x2="1389" y1="97.5" y2="12" class="net_172,173,174,175,176,177,178,179,180,181"/>
  <line x1="1389" x2="62" y1="12" y2="12" class="net_172,173,174,175,176,177,178,179,180,181"/>
  <line x1="62" x2="62" y1="12" y2="168.5" class="net_172,173,174,175,176,177,178,179,180,181"/>
  <line x1="62" x2="120" y1="168.5" y2="168.5" class="net_172,173,174,175,176,177,178,179,180,181"/>
  <line x1="42" x2="52" y1="158.5" y2="158.5" class="net_330"/>
  <line x1="52" x2="52" y1="158.5" y2="188.5" class="net_330"/>
  <circle cx="52" cy="188.5" r="2" style="fill:#000" class="net_330"/>
  <line x1="52" x2="120" y1="188.5" y2="188.5" class="net_330"/>
  <line x1="42" x2="52" y1="158.5" y2="158.5" class="net_330"/>
  <line x1="52" x2="52" y1="158.5" y2="248.5" class="net_330"/>
  <line x1="52" x2="120" y1="248.5" y2="248.5" class="net_330"/>
  <line x1="42" x2="62" y1="223.5" y2="223.5" class="net_331"/>
  <line x1="62" x2="62" y1="223.5" y2="228.5" class="net_331"/>
  <line x1="62" x2="120" y1="228.5" y2="228.5" class="net_331"/>
  <line x1="52" x2="120" y1="268.5" y2="268.5" class="net_"/>
  <line x1="52" x2="52" y1="268.5" y2="288.5" class="net_"/>
  <circle cx="52" cy="288.5" r="2" style="fill:#000" class="net_"/>
  <line x1="52" x2="120" y1="288.5" y2="288.5" class="net_"/>
  <line x1="52" x2="52" y1="268.5" y2="308.5" class="net_"/>
  <circle cx="52" cy="308.5" r="2" style="fill:#000" class="net_"/>
  <line x1="52" x2="120" y1="308.5" y2="308.5" class="net_"/>
  <line x1="52" x2="52" y1="268.5" y2="328.5" class="net_"/>
  <line x1="52" x2="120" y1="328.5" y2="328.5" class="net_"/>
  <line x1="334" x2="535" y1="242.5" y2="242.5" class="net_68,69,70,71,72,73,74,75,76,77,78,79,80,81,82,83,84,85,86,87,88,89,90,91,92,93,94,95,96,97,98,99"/>
  <line x1="566" x2="673" y1="262.5" y2="262.5" class="net_4,5,6,7,8,9,10,11,12,13,14,15,16,17,18,19,20,21,22,23,24,25,26,27,28,29,30,31,32,33,34,35"/>
  <line x1="673" x2="673" y1="262.5" y2="42" class="net_4,5,6,7,8,9,10,11,12,13,14,15,16,17,18,19,20,21,22,23,24,25,26,27,28,29,30,31,32,33,34,35"/>
  <line x1="673" x2="1283" y1="42" y2="42" class="net_4,5,6,7,8,9,10,11,12,13,14,15,16,17,18,19,20,21,22,23,24,25,26,27,28,29,30,31,32,33,34,35"/>
  <line x1="566" x2="673" y1="282.5" y2="282.5" class="net_36,37,38,39,40,41,42,43,44,45,46,47,48,49,50,51,52,53,54,55,56,57,58,59,60,61,62,63,64,65,66,67"/>
  <line x1="673" x2="673" y1="282.5" y2="316" class="net_36,37,38,39,40,41,42,43,44,45,46,47,48,49,50,51,52,53,54,55,56,57,58,59,60,61,62,63,64,65,66,67"/>
  <line x1="673" x2="1283" y1="316" y2="316" class="net_36,37,38,39,40,41,42,43,44,45,46,47,48,49,50,51,52,53,54,55,56,57,58,59,60,61,62,63,64,65,66,67"/>
  <line x1="566" x2="673" y1="322.5" y2="322.5" class="net_100,101,102"/>
  <line x1="673" x2="673" y1="322.5" y2="446" class="net_100,101,102"/>
  <line x1="673" x2="1283" y1="446" y2="446" class="net_100,101,102"/>
  <line x1="566" x2="693" y1="302.5" y2="302.5" class="net_103"/>
  <line x1="693" x2="693" y1="302.5" y2="381" class="net_103"/>
  <line x1="693" x2="1283" y1="381" y2="381" class="net_103"/>
</svg>
