<?xml version="1.0" encoding="UTF-8" standalone="no"?>
<!-- Created with Inkscape (http://www.inkscape.org/) -->

<svg
   width="210mm"
   height="297mm"
   viewBox="0 0 210 297"
   version="1.1"
   id="svg5"
   inkscape:version="1.1.1 (3bf5ae0d25, 2021-09-20)"
   sodipodi:docname="basic diagrams.svg"
   xmlns:inkscape="http://www.inkscape.org/namespaces/inkscape"
   xmlns:sodipodi="http://sodipodi.sourceforge.net/DTD/sodipodi-0.dtd"
   xmlns="http://www.w3.org/2000/svg"
   xmlns:svg="http://www.w3.org/2000/svg">
  <sodipodi:namedview
     id="namedview7"
     pagecolor="#505050"
     bordercolor="#eeeeee"
     borderopacity="1"
     inkscape:pageshadow="0"
     inkscape:pageopacity="0"
     inkscape:pagecheckerboard="0"
     inkscape:document-units="mm"
     showgrid="true"
     inkscape:zoom="0.81134749"
     inkscape:cx="422.75351"
     inkscape:cy="720.40649"
     inkscape:window-width="1600"
     inkscape:window-height="874"
     inkscape:window-x="0"
     inkscape:window-y="0"
     inkscape:window-maximized="1"
     inkscape:current-layer="g80824">
    <inkscape:grid
       type="xygrid"
       id="grid9" />
  </sodipodi:namedview>
  <defs
     id="defs2">
    <marker
       style="overflow:visible;"
       id="marker47292"
       refX="0.0"
       refY="0.0"
       orient="auto"
       inkscape:stockid="Arrow1Mend"
       inkscape:isstock="true">
      <path
         transform="scale(0.4) rotate(180) translate(10,0)"
         style="fill-rule:evenodd;fill:context-stroke;stroke:context-stroke;stroke-width:1.0pt;"
         d="M 0.0,0.0 L 5.0,-5.0 L -12.5,0.0 L 5.0,5.0 L 0.0,0.0 z "
         id="path47290" />
    </marker>
    <marker
       style="overflow:visible;"
       id="marker47280"
       refX="0.0"
       refY="0.0"
       orient="auto"
       inkscape:stockid="Arrow1Mend"
       inkscape:isstock="true">
      <path
         transform="scale(0.4) rotate(180) translate(10,0)"
         style="fill-rule:evenodd;fill:context-stroke;stroke:context-stroke;stroke-width:1.0pt;"
         d="M 0.0,0.0 L 5.0,-5.0 L -12.5,0.0 L 5.0,5.0 L 0.0,0.0 z "
         id="path47278" />
    </marker>
    <marker
       style="overflow:visible;"
       id="marker47268"
       refX="0.0"
       refY="0.0"
       orient="auto"
       inkscape:stockid="Arrow1Mend"
       inkscape:isstock="true">
      <path
         transform="scale(0.4) rotate(180) translate(10,0)"
         style="fill-rule:evenodd;fill:context-stroke;stroke:context-stroke;stroke-width:1.0pt;"
         d="M 0.0,0.0 L 5.0,-5.0 L -12.5,0.0 L 5.0,5.0 L 0.0,0.0 z "
         id="path47266" />
    </marker>
    <marker
       style="overflow:visible;"
       id="Arrow1Mend"
       refX="0.0"
       refY="0.0"
       orient="auto"
       inkscape:stockid="Arrow1Mend"
       inkscape:isstock="true">
      <path
         transform="scale(0.4) rotate(180) translate(10,0)"
         style="fill-rule:evenodd;fill:context-stroke;stroke:context-stroke;stroke-width:1.0pt;"
         d="M 0.0,0.0 L 5.0,-5.0 L -12.5,0.0 L 5.0,5.0 L 0.0,0.0 z "
         id="path46957" />
    </marker>
    <marker
       style="overflow:visible;"
       id="marker47246"
       refX="0.0"
       refY="0.0"
       orient="auto"
       inkscape:stockid="Arrow2Mend"
       inkscape:isstock="true">
      <path
         transform="scale(0.6) rotate(180) translate(0,0)"
         d="M 8.7185878,4.0337352 L -2.2072895,0.016013256 L 8.7185884,-4.0017078 C 6.9730900,-1.6296469 6.9831476,1.6157441 8.7185878,4.0337352 z "
         style="stroke:context-stroke;fill-rule:evenodd;fill:context-stroke;stroke-width:0.62500000;stroke-linejoin:round;"
         id="path47244" />
    </marker>
    <marker
       style="overflow:visible;"
       id="marker47236"
       refX="0.0"
       refY="0.0"
       orient="auto"
       inkscape:stockid="Arrow1Lend"
       inkscape:isstock="true">
      <path
         transform="scale(0.8) rotate(180) translate(12.5,0)"
         style="fill-rule:evenodd;fill:context-stroke;stroke:context-stroke;stroke-width:1.0pt;"
         d="M 0.0,0.0 L 5.0,-5.0 L -12.5,0.0 L 5.0,5.0 L 0.0,0.0 z "
         id="path47234" />
    </marker>
    <marker
       style="overflow:visible;"
       id="marker47226"
       refX="0.0"
       refY="0.0"
       orient="auto"
       inkscape:stockid="Arrow2Mend"
       inkscape:isstock="true">
      <path
         transform="scale(0.6) rotate(180) translate(0,0)"
         d="M 8.7185878,4.0337352 L -2.2072895,0.016013256 L 8.7185884,-4.0017078 C 6.9730900,-1.6296469 6.9831476,1.6157441 8.7185878,4.0337352 z "
         style="stroke:context-stroke;fill-rule:evenodd;fill:context-stroke;stroke-width:0.62500000;stroke-linejoin:round;"
         id="path47224" />
    </marker>
    <marker
       style="overflow:visible;"
       id="Arrow1Lend"
       refX="0.0"
       refY="0.0"
       orient="auto"
       inkscape:stockid="Arrow1Lend"
       inkscape:isstock="true">
      <path
         transform="scale(0.8) rotate(180) translate(12.5,0)"
         style="fill-rule:evenodd;fill:context-stroke;stroke:context-stroke;stroke-width:1.0pt;"
         d="M 0.0,0.0 L 5.0,-5.0 L -12.5,0.0 L 5.0,5.0 L 0.0,0.0 z "
         id="path46951" />
    </marker>
    <marker
       style="overflow:visible;"
       id="Arrow2Mend"
       refX="0.0"
       refY="0.0"
       orient="auto"
       inkscape:stockid="Arrow2Mend"
       inkscape:isstock="true">
      <path
         transform="scale(0.6) rotate(180) translate(0,0)"
         d="M 8.7185878,4.0337352 L -2.2072895,0.016013256 L 8.7185884,-4.0017078 C 6.9730900,-1.6296469 6.9831476,1.6157441 8.7185878,4.0337352 z "
         style="stroke:context-stroke;fill-rule:evenodd;fill:context-stroke;stroke-width:0.62500000;stroke-linejoin:round;"
         id="path46975" />
    </marker>
    <marker
       style="overflow:visible"
       id="Arrow1Mend-7"
       refX="0"
       refY="0"
       orient="auto"
       inkscape:stockid="Arrow1Mend"
       inkscape:isstock="true">
      <path
         transform="matrix(-0.4,0,0,-0.4,-4,0)"
         style="fill:context-stroke;fill-rule:evenodd;stroke:context-stroke;stroke-width:1pt"
         d="M 0,0 5,-5 -12.5,0 5,5 Z"
         id="path46957-5" />
    </marker>
    <marker
       style="overflow:visible"
       id="Arrow1Mend-7-5"
       refX="0"
       refY="0"
       orient="auto"
       inkscape:stockid="Arrow1Mend"
       inkscape:isstock="true">
      <path
         transform="matrix(-0.4,0,0,-0.4,-4,0)"
         style="fill:context-stroke;fill-rule:evenodd;stroke:context-stroke;stroke-width:1pt"
         d="M 0,0 5,-5 -12.5,0 5,5 Z"
         id="path46957-5-9" />
    </marker>
    <marker
       style="overflow:visible"
       id="Arrow1Mend-7-8"
       refX="0"
       refY="0"
       orient="auto"
       inkscape:stockid="Arrow1Mend"
       inkscape:isstock="true">
      <path
         transform="matrix(-0.4,0,0,-0.4,-4,0)"
         style="fill:context-stroke;fill-rule:evenodd;stroke:context-stroke;stroke-width:1pt"
         d="M 0,0 5,-5 -12.5,0 5,5 Z"
         id="path46957-5-3" />
    </marker>
    <marker
       style="overflow:visible"
       id="Arrow1Mend-7-4"
       refX="0"
       refY="0"
       orient="auto"
       inkscape:stockid="Arrow1Mend"
       inkscape:isstock="true">
      <path
         transform="matrix(-0.4,0,0,-0.4,-4,0)"
         style="fill:context-stroke;fill-rule:evenodd;stroke:context-stroke;stroke-width:1pt"
         d="M 0,0 5,-5 -12.5,0 5,5 Z"
         id="path46957-5-33" />
    </marker>
    <marker
       style="overflow:visible"
       id="Arrow1Mend-7-88"
       refX="0"
       refY="0"
       orient="auto"
       inkscape:stockid="Arrow1Mend"
       inkscape:isstock="true">
      <path
         transform="matrix(-0.4,0,0,-0.4,-4,0)"
         style="fill:context-stroke;fill-rule:evenodd;stroke:context-stroke;stroke-width:1pt"
         d="M 0,0 5,-5 -12.5,0 5,5 Z"
         id="path46957-5-8" />
    </marker>
    <marker
       style="overflow:visible"
       id="marker47226-5"
       refX="0"
       refY="0"
       orient="auto"
       inkscape:stockid="Arrow2Mend"
       inkscape:isstock="true">
      <path
         transform="scale(-0.6)"
         d="M 8.7185878,4.0337352 -2.2072895,0.01601326 8.7185884,-4.0017078 c -1.7454984,2.3720609 -1.7354408,5.6174519 -6e-7,8.035443 z"
         style="fill:context-stroke;fill-rule:evenodd;stroke:context-stroke;stroke-width:0.625;stroke-linejoin:round"
         id="path47224-4" />
    </marker>
    <marker
       style="overflow:visible"
       id="marker47226-6"
       refX="0"
       refY="0"
       orient="auto"
       inkscape:stockid="Arrow2Mend"
       inkscape:isstock="true">
      <path
         transform="scale(-0.6)"
         d="M 8.7185878,4.0337352 -2.2072895,0.01601326 8.7185884,-4.0017078 c -1.7454984,2.3720609 -1.7354408,5.6174519 -6e-7,8.035443 z"
         style="fill:context-stroke;fill-rule:evenodd;stroke:context-stroke;stroke-width:0.625;stroke-linejoin:round"
         id="path47224-9" />
    </marker>
    <marker
       style="overflow:visible"
       id="marker47226-6-3"
       refX="0"
       refY="0"
       orient="auto"
       inkscape:stockid="Arrow2Mend"
       inkscape:isstock="true">
      <path
         transform="scale(-0.6)"
         d="M 8.7185878,4.0337352 -2.2072895,0.01601326 8.7185884,-4.0017078 c -1.7454984,2.3720609 -1.7354408,5.6174519 -6e-7,8.035443 z"
         style="fill:context-stroke;fill-rule:evenodd;stroke:context-stroke;stroke-width:0.625;stroke-linejoin:round"
         id="path47224-9-6" />
    </marker>
    <marker
       style="overflow:visible"
       id="marker47226-6-3-0"
       refX="0"
       refY="0"
       orient="auto"
       inkscape:stockid="Arrow2Mend"
       inkscape:isstock="true">
      <path
         transform="scale(-0.6)"
         d="M 8.7185878,4.0337352 -2.2072895,0.01601326 8.7185884,-4.0017078 c -1.7454984,2.3720609 -1.7354408,5.6174519 -6e-7,8.035443 z"
         style="fill:context-stroke;fill-rule:evenodd;stroke:context-stroke;stroke-width:0.625;stroke-linejoin:round"
         id="path47224-9-6-5" />
    </marker>
    <marker
       style="overflow:visible"
       id="marker47226-6-3-4"
       refX="0"
       refY="0"
       orient="auto"
       inkscape:stockid="Arrow2Mend"
       inkscape:isstock="true">
      <path
         transform="scale(-0.6)"
         d="M 8.7185878,4.0337352 -2.2072895,0.01601326 8.7185884,-4.0017078 c -1.7454984,2.3720609 -1.7354408,5.6174519 -6e-7,8.035443 z"
         style="fill:context-stroke;fill-rule:evenodd;stroke:context-stroke;stroke-width:0.625;stroke-linejoin:round"
         id="path47224-9-6-0" />
    </marker>
  </defs>
  <g
     inkscape:label="Layer 1"
     inkscape:groupmode="layer"
     id="layer1">
    <text
       xml:space="preserve"
       style="font-size:7.05556px;line-height:1.25;font-family:sans-serif;stroke-width:0.264583"
       x="108.47916"
       y="142.875"
       id="text51640"><tspan
         sodipodi:role="line"
         id="tspan51638"
         style="stroke-width:0.264583" /></text>
    <g
       id="g80824"
       transform="translate(26.458337,10.583333)">
      <g
         id="g148477"
         transform="translate(-29.27326,-2.913153)">
        <rect
           style="fill:none;stroke:#000000;stroke-width:0.452311;stroke-miterlimit:4;stroke-dasharray:none;stroke-opacity:1"
           id="rect479"
           width="26.038124"
           height="30.260523"
           x="162.43776"
           y="97.317657" />
        <path
           sodipodi:type="star"
           style="fill:none;stroke:#000000;stroke-width:9.80787;stroke-miterlimit:4;stroke-dasharray:none;stroke-opacity:1"
           id="path661"
           inkscape:flatsided="false"
           sodipodi:sides="3"
           sodipodi:cx="260"
           sodipodi:cy="310"
           sodipodi:r1="90"
           sodipodi:r2="45"
           sodipodi:arg1="0"
           sodipodi:arg2="1.0471976"
           inkscape:rounded="0"
           inkscape:randomized="0"
           transform="matrix(0.02345777,0,0,0.02345777,157.39434,93.143531)"
           inkscape:transform-center-x="-0.52780008"
           d="M 350,310 282.5,348.97114 215,387.94229 215,310 l 0,-77.94229 67.5,38.97115 z" />
        <text
           xml:space="preserve"
           style="font-size:1.87662px;line-height:1.25;font-family:sans-serif;stroke-width:0.0703732"
           x="162.77126"
           y="106.97241"
           id="text20151"><tspan
             sodipodi:role="line"
             id="tspan20149"
             style="font-size:1.87662px;stroke-width:0.0703732"
             x="162.77126"
             y="106.97241">address</tspan></text>
        <text
           xml:space="preserve"
           style="font-size:1.87662px;line-height:1.25;font-family:sans-serif;stroke-width:0.0703732"
           x="162.81056"
           y="112.32186"
           id="text27781"><tspan
             sodipodi:role="line"
             id="tspan27779"
             style="font-size:1.87662px;stroke-width:0.0703732"
             x="162.81056"
             y="112.32186">wr_data</tspan></text>
        <text
           xml:space="preserve"
           style="font-size:1.87662px;line-height:1.25;font-family:sans-serif;stroke-width:0.0703732"
           x="178.43034"
           y="114.78373"
           id="text32543"><tspan
             sodipodi:role="line"
             id="tspan32541"
             style="stroke-width:0.0703732"
             x="178.43034"
             y="114.78373">read_data</tspan></text>
        <text
           xml:space="preserve"
           style="font-size:1.87662px;line-height:1.25;font-family:sans-serif;stroke-width:0.0703732"
           x="163.00882"
           y="123.66993"
           id="text33669"><tspan
             sodipodi:role="line"
             id="tspan33667"
             style="stroke-width:0.0703732"
             x="163.00882"
             y="123.66993">wr_enable</tspan></text>
        <text
           xml:space="preserve"
           style="font-size:1.87662px;line-height:1.25;font-family:sans-serif;stroke-width:0.0703732"
           x="162.81902"
           y="118.99616"
           id="text35983"><tspan
             sodipodi:role="line"
             id="tspan35981"
             style="stroke-width:0.0703732"
             x="162.81902"
             y="118.99616">write_length</tspan></text>
        <path
           style="fill:none;stroke:#000000;stroke-width:0.230071;stroke-linecap:butt;stroke-linejoin:miter;stroke-miterlimit:4;stroke-dasharray:none;stroke-opacity:1;marker-mid:url(#Arrow2Mend);marker-end:url(#marker47246)"
           d="m 156.10416,100.83632 h 6.3336"
           id="path46946" />
        <path
           style="fill:none;stroke:#000000;stroke-width:0.230071;stroke-linecap:butt;stroke-linejoin:miter;stroke-miterlimit:4;stroke-dasharray:none;stroke-opacity:1;marker-end:url(#Arrow1Mend)"
           d="m 156.10416,106.46619 c 5.62987,0 5.62987,0 5.62987,0 v 0 0"
           id="path47254" />
        <path
           style="fill:none;stroke:#000000;stroke-width:0.230071;stroke-linecap:butt;stroke-linejoin:miter;stroke-miterlimit:4;stroke-dasharray:none;stroke-opacity:1;marker-end:url(#marker47268)"
           d="m 156.10416,112.09605 c 6.3336,0 6.3336,0 6.3336,0"
           id="path47264" />
        <path
           style="fill:none;stroke:#000000;stroke-width:0.230071;stroke-linecap:butt;stroke-linejoin:miter;stroke-miterlimit:4;stroke-dasharray:none;stroke-opacity:1;marker-end:url(#marker47280)"
           d="m 156.10416,118.42965 c 6.3336,0 6.3336,0 6.3336,0"
           id="path47276" />
        <path
           style="fill:none;stroke:#000000;stroke-width:0.230071;stroke-linecap:butt;stroke-linejoin:miter;stroke-miterlimit:4;stroke-dasharray:none;stroke-opacity:1;marker-end:url(#marker47292)"
           d="m 155.40043,123.35578 c 6.3336,0 6.3336,0 6.3336,0"
           id="path47288" />
        <path
           style="fill:none;stroke:#000000;stroke-width:0.230071;stroke-linecap:butt;stroke-linejoin:miter;stroke-miterlimit:4;stroke-dasharray:none;stroke-opacity:1;marker-end:url(#marker47226)"
           d="m 188.47588,114.20725 h 6.3336"
           id="path47446" />
        <path
           style="fill:none;stroke:#000000;stroke-width:0.0703732px;stroke-linecap:butt;stroke-linejoin:miter;stroke-opacity:1"
           d="m 157.51163,107.16992 0.70373,-1.40746 v 0"
           id="path47600" />
        <path
           style="fill:none;stroke:#000000;stroke-width:0.0703732px;stroke-linecap:butt;stroke-linejoin:miter;stroke-opacity:1"
           d="m 157.51163,107.16992 0.70373,-1.40746 v 0"
           id="path47600-6" />
        <path
           style="fill:none;stroke:#000000;stroke-width:0.0703732px;stroke-linecap:butt;stroke-linejoin:miter;stroke-opacity:1"
           d="m 158.21536,112.79979 0.70373,-1.40747 v 0 0"
           id="path47602" />
        <path
           style="fill:none;stroke:#000000;stroke-width:0.0703732px;stroke-linecap:butt;stroke-linejoin:miter;stroke-opacity:1"
           d="m 158.21536,119.13339 1.40747,-1.40747"
           id="path47604" />
        <path
           style="fill:none;stroke:#000000;stroke-width:0.0703732px;stroke-linecap:butt;stroke-linejoin:miter;stroke-opacity:1"
           d="m 191.29081,114.91099 1.40747,-2.1112"
           id="path47608" />
        <text
           xml:space="preserve"
           style="font-size:1.87662px;line-height:1.25;font-family:sans-serif;stroke-width:0.0703732"
           x="191.40977"
           y="112.06374"
           id="text50130"><tspan
             sodipodi:role="line"
             id="tspan50128"
             style="stroke-width:0.0703732"
             x="191.40977"
             y="112.06374">32</tspan></text>
        <text
           xml:space="preserve"
           style="font-size:1.87662px;line-height:1.25;font-family:sans-serif;stroke-width:0.0703732"
           x="158.96014"
           y="116.77622"
           id="text59846"><tspan
             sodipodi:role="line"
             id="tspan59844"
             style="stroke-width:0.0703732"
             x="158.96014"
             y="116.77622">3</tspan></text>
        <text
           xml:space="preserve"
           style="font-size:1.87662px;line-height:1.25;font-family:sans-serif;stroke-width:0.0703732"
           x="157.69676"
           y="110.58365"
           id="text60774"><tspan
             sodipodi:role="line"
             id="tspan60772"
             style="stroke-width:0.0703732"
             x="157.69676"
             y="110.58365">32</tspan></text>
        <text
           xml:space="preserve"
           style="font-size:1.87662px;line-height:1.25;font-family:sans-serif;stroke-width:0.0703732"
           x="156.99022"
           y="105.58668"
           id="text61702"><tspan
             sodipodi:role="line"
             id="tspan61700"
             style="stroke-width:0.0703732"
             x="156.99022"
             y="105.58668">32</tspan></text>
        <text
           xml:space="preserve"
           style="font-size:1.87662px;line-height:1.25;font-family:sans-serif;stroke-width:0.0703732"
           x="166.66016"
           y="100.83633"
           id="text65986"><tspan
             sodipodi:role="line"
             id="tspan65984"
             style="stroke-width:0.0703732"
             x="166.66016"
             y="100.83633">clk</tspan></text>
        <g
           aria-label="memory"
           id="text69854"
           style="font-size:7.05556px;line-height:1.25;stroke-width:0.264583"
           transform="matrix(0.26597784,0,0,0.26597784,127.18147,83.074397)">
          <path
             d="m 173.5019,160.82395 q 0.23426,-0.35829 0.55466,-0.54432 0.32384,-0.18949 0.70969,-0.18949 0.6649,0 1.01286,0.40997 0.34795,0.40997 0.34795,1.19201 v 2.34955 h -1.24023 v -2.01194 q 0.003,-0.0448 0.003,-0.093 0.003,-0.0482 0.003,-0.13781 0,-0.40996 -0.12058,-0.59255 -0.12058,-0.18604 -0.3893,-0.18604 -0.3514,0 -0.54432,0.28939 -0.18948,0.28939 -0.19637,0.83716 v 1.8948 h -1.24024 v -2.01194 q 0,-0.64078 -0.11024,-0.82337 -0.11025,-0.18604 -0.39274,-0.18604 -0.35485,0 -0.54777,0.29283 -0.19293,0.28939 -0.19293,0.83027 v 1.89825 h -1.24024 v -3.85851 h 1.24024 v 0.565 q 0.22738,-0.32729 0.52021,-0.49265 0.29628,-0.16537 0.65112,-0.16537 0.39963,0 0.70625,0.19293 0.30661,0.19293 0.46509,0.54088 z"
             style="font-weight:bold;-inkscape-font-specification:'sans-serif, Bold'"
             id="path78166" />
          <path
             d="m 181.12934,162.10208 v 0.3514 h -2.88354 q 0.0448,0.43408 0.3135,0.65113 0.26872,0.21704 0.75103,0.21704 0.3893,0 0.79582,-0.11369 0.40997,-0.11714 0.8406,-0.3514 v 0.95085 q -0.43752,0.16536 -0.87505,0.24804 -0.43753,0.0861 -0.87506,0.0861 -1.04731,0 -1.62953,-0.53055 -0.57877,-0.53399 -0.57877,-1.49517 0,-0.94395 0.56844,-1.48483 0.57188,-0.54089 1.57096,-0.54089 0.90951,0 1.45383,0.54778 0.54777,0.54777 0.54777,1.46416 z m -1.26779,-0.40996 q 0,-0.3514 -0.20671,-0.565 -0.20326,-0.21704 -0.53399,-0.21704 -0.35829,0 -0.58222,0.20326 -0.22393,0.19981 -0.27905,0.57878 z"
             style="font-weight:bold;-inkscape-font-specification:'sans-serif, Bold'"
             id="path78168" />
          <path
             d="m 185.63898,160.82395 q 0.23426,-0.35829 0.55466,-0.54432 0.32384,-0.18949 0.70969,-0.18949 0.6649,0 1.01286,0.40997 0.34795,0.40997 0.34795,1.19201 v 2.34955 h -1.24024 v -2.01194 q 0.003,-0.0448 0.003,-0.093 0.003,-0.0482 0.003,-0.13781 0,-0.40996 -0.12058,-0.59255 -0.12058,-0.18604 -0.3893,-0.18604 -0.3514,0 -0.54432,0.28939 -0.18949,0.28939 -0.19638,0.83716 v 1.8948 h -1.24023 v -2.01194 q 0,-0.64078 -0.11024,-0.82337 -0.11025,-0.18604 -0.39274,-0.18604 -0.35485,0 -0.54778,0.29283 -0.19292,0.28939 -0.19292,0.83027 v 1.89825 h -1.24024 v -3.85851 h 1.24024 v 0.565 q 0.22738,-0.32729 0.52021,-0.49265 0.29628,-0.16537 0.65112,-0.16537 0.39963,0 0.70625,0.19293 0.30661,0.19293 0.46509,0.54088 z"
             style="font-weight:bold;-inkscape-font-specification:'sans-serif, Bold'"
             id="path78170" />
          <path
             d="m 191.25104,160.97209 q -0.40997,0 -0.62701,0.29628 -0.21359,0.29283 -0.21359,0.84749 0,0.55466 0.21359,0.85094 0.21704,0.29283 0.62701,0.29283 0.40308,0 0.61667,-0.29283 0.2136,-0.29628 0.2136,-0.85094 0,-0.55466 -0.2136,-0.84749 -0.21359,-0.29628 -0.61667,-0.29628 z m 0,-0.88195 q 0.99563,0 1.55374,0.53744 0.56155,0.53744 0.56155,1.48828 0,0.95085 -0.56155,1.48828 -0.55811,0.53744 -1.55374,0.53744 -0.99908,0 -1.56407,-0.53744 -0.56155,-0.53743 -0.56155,-1.48828 0,-0.95084 0.56155,-1.48828 0.56499,-0.53744 1.56407,-0.53744 z"
             style="font-weight:bold;-inkscape-font-specification:'sans-serif, Bold'"
             id="path78172" />
          <path
             d="m 197.12838,161.23392 q -0.16192,-0.0758 -0.32384,-0.11025 -0.15848,-0.0379 -0.3204,-0.0379 -0.47542,0 -0.7338,0.30661 -0.25494,0.30317 -0.25494,0.87161 v 1.77767 h -1.23334 v -3.85851 h 1.23334 v 0.6339 q 0.23771,-0.37896 0.54433,-0.55122 0.31005,-0.1757 0.74069,-0.1757 0.062,0 0.13436,0.007 0.0724,0.003 0.21015,0.0207 z"
             style="font-weight:bold;-inkscape-font-specification:'sans-serif, Bold'"
             id="path78174" />
          <path
             d="m 197.23518,160.18316 h 1.23334 l 1.03697,2.61828 0.88195,-2.61828 h 1.23334 l -1.62264,4.22369 q -0.2446,0.64424 -0.57188,0.89917 -0.32384,0.25838 -0.85783,0.25838 h -0.71314 v -0.80959 h 0.38585 q 0.31351,0 0.45476,-0.0999 0.14469,-0.0999 0.22393,-0.35829 l 0.0345,-0.1068 z"
             style="font-weight:bold;-inkscape-font-specification:'sans-serif, Bold'"
             id="path78176" />
        </g>
      </g>
      <path
         style="fill:none;stroke:#000000;stroke-width:0.395847;stroke-linecap:butt;stroke-linejoin:miter;stroke-miterlimit:4;stroke-dasharray:none;stroke-opacity:1;marker-end:url(#Arrow1Mend-7)"
         d="m 37.13135,164.04167 c 9.686443,0 9.686443,0 9.686443,0 v 0 0"
         id="path47254-9" />
      <path
         style="fill:none;stroke:#000000;stroke-width:0.12108px;stroke-linecap:butt;stroke-linejoin:miter;stroke-opacity:1"
         d="m 39.552958,165.25247 2.421611,-2.42161"
         id="path47604-2" />
      <path
         style="fill:none;stroke:#000000;stroke-width:0.395847;stroke-linecap:butt;stroke-linejoin:miter;stroke-miterlimit:4;stroke-dasharray:none;stroke-opacity:1;marker-end:url(#marker47226-5)"
         d="M 95.249996,164.04167 H 106.14724"
         id="path47446-0" />
      <path
         style="fill:none;stroke:#000000;stroke-width:0.12108px;stroke-linecap:butt;stroke-linejoin:miter;stroke-opacity:1"
         d="m 100.09322,165.25248 2.42161,-3.63242"
         id="path47608-5" />
      <text
         xml:space="preserve"
         style="font-size:3.22882px;line-height:1.25;font-family:sans-serif;stroke-width:0.12108"
         x="100.29789"
         y="160.35364"
         id="text50130-9"><tspan
           sodipodi:role="line"
           id="tspan50128-4"
           style="stroke-width:0.12108"
           x="100.29789"
           y="160.35364">32</tspan></text>
      <text
         xml:space="preserve"
         style="font-size:3.22882px;line-height:1.25;font-family:sans-serif;stroke-width:0.12108"
         x="40.57296"
         y="161.11765"
         id="text59846-1"><tspan
           sodipodi:role="line"
           id="tspan59844-7"
           style="stroke-width:0.12108"
           x="40.57296"
           y="161.11765">5</tspan></text>
      <rect
         style="fill:none;stroke:#000000;stroke-width:0.395847"
         id="rect88182"
         width="47.221401"
         height="71.437508"
         x="48.028595"
         y="149.51199" />
      <path
         sodipodi:type="star"
         style="fill:none;stroke:#000000;stroke-width:3.26929"
         id="path88258"
         inkscape:flatsided="false"
         sodipodi:sides="3"
         sodipodi:cx="10"
         sodipodi:cy="380"
         sodipodi:r1="30"
         sodipodi:r2="15"
         sodipodi:arg1="0"
         sodipodi:arg2="1.0471976"
         inkscape:rounded="0"
         inkscape:randomized="0"
         transform="matrix(0.12108051,0,0,0.12108051,48.633996,108.83128)"
         inkscape:transform-center-x="-0.90810379"
         inkscape:transform-center-y="-1.7176624e-06"
         d="M 40,380 17.499999,392.99038 -5,405.98076 -5,380 l 0,-25.98076 22.500001,12.99038 z" />
      <text
         xml:space="preserve"
         style="font-size:3.22882px;line-height:1.25;font-family:sans-serif;letter-spacing:0px;stroke-width:0.12108"
         x="54.872971"
         y="155.71989"
         id="text88826"><tspan
           sodipodi:role="line"
           style="stroke-width:0.12108"
           x="54.872971"
           y="155.71989"
           id="tspan88840">clk</tspan></text>
      <text
         xml:space="preserve"
         style="font-size:3.22882px;line-height:1.25;font-family:sans-serif;letter-spacing:0px;stroke-width:0.12108"
         x="51.176624"
         y="164.38736"
         id="text92669"><tspan
           sodipodi:role="line"
           id="tspan92667"
           style="stroke-width:0.12108"
           x="51.176624"
           y="164.38736">rd_address_a</tspan></text>
      <text
         xml:space="preserve"
         style="font-size:3.22882px;line-height:1.25;font-family:sans-serif;letter-spacing:0px;stroke-width:0.12108"
         x="50.74062"
         y="173.44286"
         id="text95541"><tspan
           sodipodi:role="line"
           id="tspan95539"
           style="stroke-width:0.12108"
           x="50.74062"
           y="173.44286">rd_address_b</tspan></text>
      <text
         xml:space="preserve"
         style="font-size:3.22882px;line-height:1.25;font-family:sans-serif;letter-spacing:0px;stroke-width:0.12108"
         x="50.20285"
         y="183.502"
         id="text98959"><tspan
           sodipodi:role="line"
           id="tspan98957"
           style="stroke-width:0.12108"
           x="50.20285"
           y="183.502">wr_enable</tspan></text>
      <text
         xml:space="preserve"
         style="font-size:3.22882px;line-height:1.25;font-family:sans-serif;letter-spacing:0px;stroke-width:0.12108"
         x="50.237999"
         y="193.03377"
         id="text101717"><tspan
           sodipodi:role="line"
           id="tspan101715"
           style="stroke-width:0.12108"
           x="50.237999"
           y="193.03377">wr_address</tspan></text>
      <text
         xml:space="preserve"
         style="font-size:3.22882px;line-height:1.25;font-family:sans-serif;letter-spacing:0px;stroke-width:0.12108"
         x="51.87405"
         y="203.0233"
         id="text103443"><tspan
           sodipodi:role="line"
           id="tspan103441"
           style="stroke-width:0.12108"
           x="51.87405"
           y="203.0233">wr_data</tspan></text>
      <text
         xml:space="preserve"
         style="font-size:3.22882px;line-height:1.25;font-family:sans-serif;letter-spacing:0px;stroke-width:0.12108"
         x="77.004402"
         y="164.85387"
         id="text105115"><tspan
           sodipodi:role="line"
           id="tspan105113"
           style="stroke-width:0.12108"
           x="77.004402"
           y="164.85387">data_out_a</tspan></text>
      <text
         xml:space="preserve"
         style="font-size:3.22882px;line-height:1.25;font-family:sans-serif;letter-spacing:0px;stroke-width:0.12108"
         x="77.172401"
         y="173.26604"
         id="text107819"><tspan
           sodipodi:role="line"
           id="tspan107817"
           style="stroke-width:0.12108"
           x="77.172401"
           y="173.26604">data_out_b</tspan></text>
      <path
         style="fill:none;stroke:#000000;stroke-width:0.395847;stroke-linecap:butt;stroke-linejoin:miter;stroke-miterlimit:4;stroke-dasharray:none;stroke-opacity:1;marker-end:url(#Arrow1Mend-7-5)"
         d="m 37.131346,171.3065 c 9.686442,0 9.686442,0 9.686442,0 v 0 0"
         id="path47254-9-7" />
      <path
         style="fill:none;stroke:#000000;stroke-width:0.12108px;stroke-linecap:butt;stroke-linejoin:miter;stroke-opacity:1"
         d="m 39.552958,172.5173 2.421611,-2.42161"
         id="path47604-2-5" />
      <text
         xml:space="preserve"
         style="font-size:3.22882px;line-height:1.25;font-family:sans-serif;stroke-width:0.12108"
         x="40.572952"
         y="168.38248"
         id="text59846-1-3"><tspan
           sodipodi:role="line"
           id="tspan59844-7-8"
           style="stroke-width:0.12108"
           x="40.572952"
           y="168.38248">5</tspan></text>
      <path
         style="fill:none;stroke:#000000;stroke-width:0.395847;stroke-linecap:butt;stroke-linejoin:miter;stroke-miterlimit:4;stroke-dasharray:none;stroke-opacity:1;marker-end:url(#Arrow1Mend-7-8)"
         d="m 37.131346,182.20375 c 9.686442,0 9.686442,0 9.686442,0 v 0 0"
         id="path47254-9-1" />
      <path
         style="fill:none;stroke:#000000;stroke-width:0.395847;stroke-linecap:butt;stroke-linejoin:miter;stroke-miterlimit:4;stroke-dasharray:none;stroke-opacity:1;marker-end:url(#Arrow1Mend-7-4)"
         d="m 37.131346,191.89018 c 9.686442,0 9.686442,0 9.686442,0 v 0 0"
         id="path47254-9-3" />
      <path
         style="fill:none;stroke:#000000;stroke-width:0.12108px;stroke-linecap:butt;stroke-linejoin:miter;stroke-opacity:1"
         d="m 39.552958,193.10099 2.421611,-2.42161"
         id="path47604-2-86" />
      <text
         xml:space="preserve"
         style="font-size:3.22882px;line-height:1.25;font-family:sans-serif;stroke-width:0.12108"
         x="40.572952"
         y="188.96614"
         id="text59846-1-0"><tspan
           sodipodi:role="line"
           id="tspan59844-7-4"
           style="stroke-width:0.12108"
           x="40.572952"
           y="188.96614">5</tspan></text>
      <path
         style="fill:none;stroke:#000000;stroke-width:0.395847;stroke-linecap:butt;stroke-linejoin:miter;stroke-miterlimit:4;stroke-dasharray:none;stroke-opacity:1;marker-end:url(#Arrow1Mend-7-88)"
         d="m 37.131346,202.78743 c 9.686442,0 9.686442,0 9.686442,0 v 0 0"
         id="path47254-9-9" />
      <path
         style="fill:none;stroke:#000000;stroke-width:0.12108px;stroke-linecap:butt;stroke-linejoin:miter;stroke-opacity:1"
         d="m 39.552958,203.99823 2.421611,-2.42161"
         id="path47604-2-7" />
      <text
         xml:space="preserve"
         style="font-size:3.22882px;line-height:1.25;font-family:sans-serif;stroke-width:0.12108"
         x="40.572952"
         y="199.86339"
         id="text59846-1-7"><tspan
           sodipodi:role="line"
           id="tspan59844-7-64"
           style="stroke-width:0.12108"
           x="40.572952"
           y="199.86339">32</tspan></text>
      <path
         style="fill:none;stroke:#000000;stroke-width:0.395847;stroke-linecap:butt;stroke-linejoin:miter;stroke-miterlimit:4;stroke-dasharray:none;stroke-opacity:1;marker-end:url(#marker47226-6)"
         d="M 95.249991,172.5173 H 106.14724"
         id="path47446-2" />
      <path
         style="fill:none;stroke:#000000;stroke-width:0.12108px;stroke-linecap:butt;stroke-linejoin:miter;stroke-opacity:1"
         d="m 100.09321,173.72811 2.42161,-3.63241"
         id="path47608-2" />
      <text
         xml:space="preserve"
         style="font-size:3.22882px;line-height:1.25;font-family:sans-serif;stroke-width:0.12108"
         x="100.29789"
         y="168.82927"
         id="text50130-4"><tspan
           sodipodi:role="line"
           id="tspan50128-7"
           style="stroke-width:0.12108"
           x="100.29789"
           y="168.82927">32</tspan></text>
      <text
         xml:space="preserve"
         style="font-size:3.22882px;line-height:1.25;font-family:sans-serif;letter-spacing:0px;stroke-width:0.12108"
         x="55.937672"
         y="219.22462"
         id="text121918"><tspan
           sodipodi:role="line"
           id="tspan121916"
           style="stroke-width:0.12108"
           x="55.937672"
           y="219.22462">register_memory</tspan></text>
      <g
         id="g147699"
         transform="matrix(0.40765877,0,0,0.40765877,-40.247968,7.4783522)">
        <path
           style="fill:none;stroke:#000000;stroke-width:0.865;stroke-linecap:butt;stroke-linejoin:miter;stroke-miterlimit:4;stroke-dasharray:none;stroke-opacity:1;marker-end:url(#marker47226-6-3)"
           d="m 240.77083,284.69173 h 23.8125"
           id="path47446-2-8" />
        <path
           style="fill:none;stroke:#000000;stroke-width:0.264583px;stroke-linecap:butt;stroke-linejoin:miter;stroke-opacity:1"
           d="m 251.35416,287.33758 5.29167,-7.9375"
           id="path47608-2-0" />
        <text
           xml:space="preserve"
           style="font-size:7.05556px;line-height:1.25;font-family:sans-serif;stroke-width:0.264583"
           x="251.80144"
           y="276.63281"
           id="text50130-4-2"><tspan
             sodipodi:role="line"
             id="tspan50128-7-1"
             style="stroke-width:0.264583"
             x="251.80144"
             y="276.63281">32</tspan></text>
        <path
           style="fill:none;stroke:#000000;stroke-width:0.865;stroke-linecap:butt;stroke-linejoin:miter;stroke-miterlimit:4;stroke-dasharray:none;stroke-opacity:1;marker-end:url(#marker47226-6-3-0)"
           d="m 240.77083,246.0625 h 23.8125"
           id="path47446-2-8-1" />
        <path
           style="fill:none;stroke:#000000;stroke-width:0.264583px;stroke-linecap:butt;stroke-linejoin:miter;stroke-opacity:1"
           d="m 251.35416,248.70835 5.29167,-7.9375"
           id="path47608-2-0-1" />
        <text
           xml:space="preserve"
           style="font-size:7.05556px;line-height:1.25;font-family:sans-serif;stroke-width:0.264583"
           x="251.80144"
           y="238.00349"
           id="text50130-4-2-0"><tspan
             sodipodi:role="line"
             id="tspan50128-7-1-8"
             style="stroke-width:0.264583"
             x="251.80144"
             y="238.00349">32</tspan></text>
        <text
           xml:space="preserve"
           style="font-size:7.05556px;line-height:1.25;font-family:sans-serif;letter-spacing:0px;stroke-width:0.264583"
           x="270.93341"
           y="232.30414"
           id="text124866"><tspan
             sodipodi:role="line"
             id="tspan124864"
             style="stroke-width:0.264583"
             x="270.93341"
             y="232.30414">opcode</tspan></text>
        <text
           xml:space="preserve"
           style="font-size:7.05556px;line-height:1.25;font-family:sans-serif;letter-spacing:0px;stroke-width:0.264583"
           x="249.81464"
           y="254.83739"
           id="text132352"><tspan
             sodipodi:role="line"
             id="tspan132350"
             style="stroke-width:0.264583"
             x="249.81464"
             y="254.83739">left</tspan></text>
        <text
           xml:space="preserve"
           style="font-size:7.05556px;line-height:1.25;font-family:sans-serif;letter-spacing:0px;stroke-width:0.264583"
           x="242.88753"
           y="297.39197"
           id="text135568"><tspan
             sodipodi:role="line"
             id="tspan135566"
             style="stroke-width:0.264583"
             x="242.88753"
             y="297.39197">right</tspan></text>
        <path
           style="fill:none;stroke:#000000;stroke-width:0.865;stroke-linecap:butt;stroke-linejoin:miter;stroke-miterlimit:4;stroke-dasharray:none;stroke-opacity:1;marker-end:url(#marker47226-6-3-4)"
           d="m 280.45833,267.22917 h 23.8125"
           id="path47446-2-8-6" />
        <path
           style="fill:none;stroke:#000000;stroke-width:0.264583px;stroke-linecap:butt;stroke-linejoin:miter;stroke-opacity:1"
           d="m 291.04166,269.87502 5.29167,-7.9375"
           id="path47608-2-0-2" />
        <text
           xml:space="preserve"
           style="font-size:7.05556px;line-height:1.25;font-family:sans-serif;stroke-width:0.264583"
           x="291.48895"
           y="259.17026"
           id="text50130-4-2-9"><tspan
             sodipodi:role="line"
             id="tspan50128-7-1-9"
             style="stroke-width:0.264583"
             x="291.48895"
             y="259.17026">32</tspan></text>
        <text
           xml:space="preserve"
           style="font-size:7.05556px;line-height:1.25;font-family:sans-serif;letter-spacing:0px;stroke-width:0.264583"
           x="282.57501"
           y="279.92941"
           id="text135568-0"><tspan
             sodipodi:role="line"
             id="tspan135566-8"
             style="stroke-width:0.264583"
             x="282.57501"
             y="279.92941">result</tspan></text>
        <path
           style="fill:none;stroke:#000000;stroke-width:0.297778px;stroke-linecap:butt;stroke-linejoin:miter;stroke-opacity:1"
           d="m 267.22916,240.77083 v 16.75695 l 7.9375,10.05417 -7.9375,10.05416 v 13.40556 l 13.22917,-16.75695 v -13.40556 z"
           id="path139123" />
        <circle
           id="path139125"
           style="fill:#000000;stroke:none;stroke-width:0.264583"
           cx="267.22916"
           cy="240.77083"
           r="0.39687499" />
        <path
           style="fill:none;stroke:#000000;stroke-width:0.865;stroke-linecap:butt;stroke-linejoin:miter;stroke-miterlimit:4;stroke-dasharray:none;stroke-opacity:1;marker-end:url(#Arrow2Mend)"
           d="m 275.16666,238.125 v 10.58333"
           id="path139766" />
        <path
           style="fill:none;stroke:#000000;stroke-width:0.264583px;stroke-linecap:butt;stroke-linejoin:miter;stroke-opacity:1"
           d="m 272.52083,240.77083 7.9375,2.64583 v 0"
           id="path139881" />
        <text
           xml:space="preserve"
           style="font-size:7.05556px;line-height:1.25;font-family:sans-serif;letter-spacing:0px;stroke-width:0.264583"
           x="282.57495"
           y="243.94582"
           id="text142811"><tspan
             sodipodi:role="line"
             style="stroke-width:0.264583"
             x="282.57495"
             y="243.94582"
             id="tspan143209">3</tspan></text>
        <text
           xml:space="preserve"
           style="font-size:7.05556px;line-height:1.25;font-family:sans-serif;letter-spacing:0px;stroke-width:0.264583"
           x="275.16666"
           y="301.625"
           id="text146449"><tspan
             sodipodi:role="line"
             id="tspan146447"
             style="stroke-width:0.264583"
             x="275.16666"
             y="301.625">ALU</tspan></text>
      </g>
    </g>
  </g>
</svg>
