<svg xmlns="http://www.w3.org/2000/svg" xmlns:xlink="http://www.w3.org/1999/xlink" xmlns:s="https://github.com/nturley/netlistsvg" width="499" height="443.5">
  <style>svg {
    stroke:#000;
    fill:none;
  }
  text {
    fill:#000;
    stroke:none;
    font-size:10px;
    font-weight: bold;
    font-family: "Courier New", monospace;
  }
  .nodelabel {
    text-anchor: middle;
  }
  .inputPortLabel {
    text-anchor: end;
  }
  .splitjoinBody {
    fill:#000;
  }</style>
  <g s:type="add" transform="translate(92.33333333333333,286.5)" s:width="25" s:height="25" id="cell_$add$VGA.v:24$3">
    <s:alias val="$add"/>
    <circle r="12.5" cx="12.5" cy="12.5" class="cell_$add$VGA.v:24$3"/>
    <line x1="7.5" x2="17.5" y1="12.5" y2="12.5" class="cell_$add$VGA.v:24$3"/>
    <line x1="12.5" x2="12.5" y1="7.5" y2="17.5" class="cell_$add$VGA.v:24$3"/>
    <g s:x="3" s:y="5" s:pid="A"/>
    <g s:x="3" s:y="20" s:pid="B"/>
    <g s:x="25" s:y="12.5" s:pid="Y"/>
  </g>
  <g s:type="add" transform="translate(92.33333333333333,43)" s:width="25" s:height="25" id="cell_$add$VGA.v:25$6">
    <s:alias val="$add"/>
    <circle r="12.5" cx="12.5" cy="12.5" class="cell_$add$VGA.v:25$6"/>
    <line x1="7.5" x2="17.5" y1="12.5" y2="12.5" class="cell_$add$VGA.v:25$6"/>
    <line x1="12.5" x2="12.5" y1="7.5" y2="17.5" class="cell_$add$VGA.v:25$6"/>
    <g s:x="3" s:y="5" s:pid="A"/>
    <g s:x="3" s:y="20" s:pid="B"/>
    <g s:x="25" s:y="12.5" s:pid="Y"/>
  </g>
  <g s:type="eq" transform="translate(92.33333333333333,396.5)" s:width="25" s:height="25" id="cell_$eq$VGA.v:24$2">
    <s:alias val="$eq"/>
    <circle r="12.5" cx="12.5" cy="12.5" class="cell_$eq$VGA.v:24$2"/>
    <line x1="7.5" x2="17.5" y1="10" y2="10" class="cell_$eq$VGA.v:24$2"/>
    <line x1="7.5" x2="17.5" y1="15" y2="15" class="cell_$eq$VGA.v:24$2"/>
    <g s:x="3" s:y="5" s:pid="A"/>
    <g s:x="3" s:y="20" s:pid="B"/>
    <g s:x="25" s:y="12.5" s:pid="Y"/>
  </g>
  <g s:type="eq" transform="translate(92.33333333333333,168)" s:width="25" s:height="25" id="cell_$eq$VGA.v:25$5">
    <s:alias val="$eq"/>
    <circle r="12.5" cx="12.5" cy="12.5" class="cell_$eq$VGA.v:25$5"/>
    <line x1="7.5" x2="17.5" y1="10" y2="10" class="cell_$eq$VGA.v:25$5"/>
    <line x1="7.5" x2="17.5" y1="15" y2="15" class="cell_$eq$VGA.v:25$5"/>
    <g s:x="3" s:y="5" s:pid="A"/>
    <g s:x="3" s:y="20" s:pid="B"/>
    <g s:x="25" s:y="12.5" s:pid="Y"/>
  </g>
  <g s:type="gt" transform="translate(338.6666666666667,219)" s:width="25" s:height="25" id="cell_$gt$VGA.v:31$8">
    <s:alias val="$gt"/>
    <circle r="12.5" cx="12.5" cy="12.5" class="cell_$gt$VGA.v:31$8"/>
    <line x1="7.5" x2="17.5" y1="7.5" y2="12.5" class="cell_$gt$VGA.v:31$8"/>
    <line x1="7.5" x2="17.5" y1="17.5" y2="12.5" class="cell_$gt$VGA.v:31$8"/>
    <g s:x="3" s:y="5" s:pid="A"/>
    <g s:x="3" s:y="20" s:pid="B"/>
    <g s:x="25" s:y="12.5" s:pid="Y"/>
  </g>
  <g s:type="gt" transform="translate(338.6666666666667,60.5)" s:width="25" s:height="25" id="cell_$gt$VGA.v:32$10">
    <s:alias val="$gt"/>
    <circle r="12.5" cx="12.5" cy="12.5" class="cell_$gt$VGA.v:32$10"/>
    <line x1="7.5" x2="17.5" y1="7.5" y2="12.5" class="cell_$gt$VGA.v:32$10"/>
    <line x1="7.5" x2="17.5" y1="17.5" y2="12.5" class="cell_$gt$VGA.v:32$10"/>
    <g s:x="3" s:y="5" s:pid="A"/>
    <g s:x="3" s:y="20" s:pid="B"/>
    <g s:x="25" s:y="12.5" s:pid="Y"/>
  </g>
  <g s:type="dff" transform="translate(263,214)" s:width="30" s:height="40" id="cell_$procdff$13">
    <s:alias val="$dff"/>
    <s:alias val="$_DFF_"/>
    <s:alias val="$_DFF_P_"/>
    <rect width="30" height="40" x="0" y="0" class="cell_$procdff$13"/>
    <path d="M0,35 L5,30 L0,25" class="cell_$procdff$13"/>
    <g s:x="30" s:y="10" s:pid="Q"/>
    <g s:x="0" s:y="30" s:pid="CLK"/>
    <g s:x="0" s:y="30" s:pid="C"/>
    <g s:x="0" s:y="10" s:pid="D"/>
  </g>
  <g s:type="dff" transform="translate(263,55.5)" s:width="30" s:height="40" id="cell_$procdff$14">
    <s:alias val="$dff"/>
    <s:alias val="$_DFF_"/>
    <s:alias val="$_DFF_P_"/>
    <rect width="30" height="40" x="0" y="0" class="cell_$procdff$14"/>
    <path d="M0,35 L5,30 L0,25" class="cell_$procdff$14"/>
    <g s:x="30" s:y="10" s:pid="Q"/>
    <g s:x="0" s:y="30" s:pid="CLK"/>
    <g s:x="0" s:y="30" s:pid="C"/>
    <g s:x="0" s:y="10" s:pid="D"/>
  </g>
  <g s:type="mux" transform="translate(174.33333333333334,289)" s:width="20" s:height="40" id="cell_$ternary$VGA.v:24$4">
    <s:alias val="$pmux"/>
    <s:alias val="$mux"/>
    <s:alias val="$_MUX_"/>
    <path d="M0,0 L20,10 L20,30 L0,40 Z" class="cell_$ternary$VGA.v:24$4"/>
    <g s:x="0" s:y="10" s:pid="A"/>
    <g s:x="0" s:y="30" s:pid="B"/>
    <g s:x="10" s:y="35" s:pid="S"/>
    <g s:x="20" s:y="20" s:pid="Y"/>
  </g>
  <g s:type="mux" transform="translate(174.33333333333334,45.5)" s:width="20" s:height="40" id="cell_$ternary$VGA.v:25$7">
    <s:alias val="$pmux"/>
    <s:alias val="$mux"/>
    <s:alias val="$_MUX_"/>
    <path d="M0,0 L20,10 L20,30 L0,40 Z" class="cell_$ternary$VGA.v:25$7"/>
    <g s:x="0" s:y="10" s:pid="A"/>
    <g s:x="0" s:y="30" s:pid="B"/>
    <g s:x="10" s:y="35" s:pid="S"/>
    <g s:x="20" s:y="20" s:pid="Y"/>
  </g>
  <g s:type="mux" transform="translate(402,110.5)" s:width="20" s:height="40" id="cell_$ternary$VGA.v:31$9">
    <s:alias val="$pmux"/>
    <s:alias val="$mux"/>
    <s:alias val="$_MUX_"/>
    <path d="M0,0 L20,10 L20,30 L0,40 Z" class="cell_$ternary$VGA.v:31$9"/>
    <g s:x="0" s:y="10" s:pid="A"/>
    <g s:x="0" s:y="30" s:pid="B"/>
    <g s:x="10" s:y="35" s:pid="S"/>
    <g s:x="20" s:y="20" s:pid="Y"/>
  </g>
  <g s:type="mux" transform="translate(402,12)" s:width="20" s:height="40" id="cell_$ternary$VGA.v:32$11">
    <s:alias val="$pmux"/>
    <s:alias val="$mux"/>
    <s:alias val="$_MUX_"/>
    <path d="M0,0 L20,10 L20,30 L0,40 Z" class="cell_$ternary$VGA.v:32$11"/>
    <g s:x="0" s:y="10" s:pid="A"/>
    <g s:x="0" s:y="30" s:pid="B"/>
    <g s:x="10" s:y="35" s:pid="S"/>
    <g s:x="20" s:y="20" s:pid="Y"/>
  </g>
  <g s:type="inputExt" transform="translate(159,234)" s:width="30" s:height="20" id="cell_clk25175KHz">
    <text x="15" y="-4" class="nodelabel cell_clk25175KHz" s:attribute="ref">clk25175KHz</text>
    <s:alias val="$_inputExt_"/>
    <path d="M0,0 L0,20 L15,20 L30,10 L15,0 Z" class="cell_clk25175KHz"/>
    <g s:x="28" s:y="10" s:pid="Y"/>
  </g>
  <g s:type="outputExt" transform="translate(457,120.5)" s:width="30" s:height="20" id="cell_hSync">
    <text x="15" y="-4" class="nodelabel cell_hSync" s:attribute="ref">hSync</text>
    <s:alias val="$_outputExt_"/>
    <path d="M30,0 L30,20 L15,20 L0,10 L15,0 Z" class="cell_hSync"/>
    <g s:x="0" s:y="10" s:pid="A"/>
  </g>
  <g s:type="outputExt" transform="translate(457,22)" s:width="30" s:height="20" id="cell_vSync">
    <text x="15" y="-4" class="nodelabel cell_vSync" s:attribute="ref">vSync</text>
    <s:alias val="$_outputExt_"/>
    <path d="M30,0 L30,20 L15,20 L0,10 L15,0 Z" class="cell_vSync"/>
    <g s:x="0" s:y="10" s:pid="A"/>
  </g>
  <g s:type="constant" transform="translate(12,53)" s:width="30" s:height="20" id="cell_1">
    <text x="15" y="-4" class="nodelabel cell_1" s:attribute="ref">1</text>
    <s:alias val="$_constant_"/>
    <rect width="30" height="20" class="cell_1"/>
    <g s:x="30" s:y="10" s:pid="Y"/>
  </g>
  <g s:type="constant" transform="translate(12,406.5)" s:width="30" s:height="20" id="cell_1100011111">
    <text x="15" y="-4" class="nodelabel cell_1100011111" s:attribute="ref">0x31f</text>
    <s:alias val="$_constant_"/>
    <rect width="30" height="20" class="cell_1100011111"/>
    <g s:x="30" s:y="10" s:pid="Y"/>
  </g>
  <g s:type="constant" transform="translate(12,178)" s:width="30" s:height="20" id="cell_1100110100010011111">
    <text x="15" y="-4" class="nodelabel cell_1100110100010011111" s:attribute="ref">0x6689f</text>
    <s:alias val="$_constant_"/>
    <rect width="30" height="20" class="cell_1100110100010011111"/>
    <g s:x="30" s:y="10" s:pid="Y"/>
  </g>
  <g s:type="constant" transform="translate(260,406.5)" s:width="30" s:height="20" id="cell_1011000000">
    <text x="15" y="-4" class="nodelabel cell_1011000000" s:attribute="ref">0x2c0</text>
    <s:alias val="$_constant_"/>
    <rect width="30" height="20" class="cell_1011000000"/>
    <g s:x="30" s:y="10" s:pid="Y"/>
  </g>
  <g s:type="constant" transform="translate(260,140.5)" s:width="30" s:height="20" id="cell_1100110001001100000">
    <text x="15" y="-4" class="nodelabel cell_1100110001001100000" s:attribute="ref">0x66260</text>
    <s:alias val="$_constant_"/>
    <rect width="30" height="20" class="cell_1100110001001100000"/>
    <g s:x="30" s:y="10" s:pid="Y"/>
  </g>
  <g s:type="constant" transform="translate(89,356.5)" s:width="30" s:height="20" id="cell_0000000000">
    <text x="15" y="-4" class="nodelabel cell_0000000000" s:attribute="ref">0x0</text>
    <s:alias val="$_constant_"/>
    <rect width="30" height="20" class="cell_0000000000"/>
    <g s:x="30" s:y="10" s:pid="Y"/>
  </g>
  <g s:type="constant" transform="translate(89,113)" s:width="30" s:height="20" id="cell_0000000000000000000">
    <text x="15" y="-4" class="nodelabel cell_0000000000000000000" s:attribute="ref">0x0</text>
    <s:alias val="$_constant_"/>
    <rect width="30" height="20" class="cell_0000000000000000000"/>
    <g s:x="30" s:y="10" s:pid="Y"/>
  </g>
  <g s:type="constant" transform="translate(337,130.5)" s:width="30" s:height="20" id="cell_0">
    <text x="15" y="-4" class="nodelabel cell_0" s:attribute="ref">0</text>
    <s:alias val="$_constant_"/>
    <rect width="30" height="20" class="cell_0"/>
    <g s:x="30" s:y="10" s:pid="Y"/>
  </g>
  <line x1="293" x2="312" y1="224" y2="224" class="net_5,6,7,8,9,10,11,12,13,14"/>
  <line x1="312" x2="312" y1="224" y2="386.5" class="net_5,6,7,8,9,10,11,12,13,14"/>
  <line x1="312" x2="74" y1="386.5" y2="386.5" class="net_5,6,7,8,9,10,11,12,13,14"/>
  <line x1="74" x2="74" y1="386.5" y2="291.5" class="net_5,6,7,8,9,10,11,12,13,14"/>
  <circle cx="312" cy="224" r="2" style="fill:#000" class="net_5,6,7,8,9,10,11,12,13,14"/>
  <line x1="74" x2="95.33333333333333" y1="291.5" y2="291.5" class="net_5,6,7,8,9,10,11,12,13,14"/>
  <line x1="293" x2="312" y1="224" y2="224" class="net_5,6,7,8,9,10,11,12,13,14"/>
  <line x1="312" x2="312" y1="224" y2="386.5" class="net_5,6,7,8,9,10,11,12,13,14"/>
  <line x1="312" x2="149" y1="386.5" y2="386.5" class="net_5,6,7,8,9,10,11,12,13,14"/>
  <line x1="149" x2="149" y1="386.5" y2="431.5" class="net_5,6,7,8,9,10,11,12,13,14"/>
  <line x1="149" x2="74" y1="431.5" y2="431.5" class="net_5,6,7,8,9,10,11,12,13,14"/>
  <line x1="74" x2="74" y1="431.5" y2="401.5" class="net_5,6,7,8,9,10,11,12,13,14"/>
  <circle cx="149" cy="386.5" r="2" style="fill:#000" class="net_5,6,7,8,9,10,11,12,13,14"/>
  <line x1="74" x2="95.33333333333333" y1="401.5" y2="401.5" class="net_5,6,7,8,9,10,11,12,13,14"/>
  <line x1="293" x2="341.6666666666667" y1="224" y2="224" class="net_5,6,7,8,9,10,11,12,13,14"/>
  <line x1="42" x2="64" y1="63" y2="63" class="net_96"/>
  <line x1="64" x2="64" y1="63" y2="306.5" class="net_96"/>
  <circle cx="64" cy="63" r="2" style="fill:#000" class="net_96"/>
  <line x1="64" x2="95.33333333333333" y1="306.5" y2="306.5" class="net_96"/>
  <line x1="42" x2="95.33333333333333" y1="63" y2="63" class="net_96"/>
  <line x1="42" x2="64" y1="63" y2="63" class="net_96"/>
  <line x1="64" x2="64" y1="63" y2="203" class="net_96"/>
  <line x1="64" x2="387" y1="203" y2="203" class="net_96"/>
  <line x1="387" x2="387" y1="203" y2="120.5" class="net_96"/>
  <circle cx="64" cy="203" r="2" style="fill:#000" class="net_96"/>
  <line x1="387" x2="402" y1="120.5" y2="120.5" class="net_96"/>
  <line x1="42" x2="64" y1="63" y2="63" class="net_96"/>
  <line x1="64" x2="64" y1="63" y2="22" class="net_96"/>
  <line x1="64" x2="402" y1="22" y2="22" class="net_96"/>
  <line x1="293" x2="312" y1="65.5" y2="65.5" class="net_25,26,27,28,29,30,31,32,33,34,35,36,37,38,39,40,41,42,43"/>
  <line x1="312" x2="312" y1="65.5" y2="33" class="net_25,26,27,28,29,30,31,32,33,34,35,36,37,38,39,40,41,42,43"/>
  <line x1="312" x2="74" y1="33" y2="33" class="net_25,26,27,28,29,30,31,32,33,34,35,36,37,38,39,40,41,42,43"/>
  <line x1="74" x2="74" y1="33" y2="48" class="net_25,26,27,28,29,30,31,32,33,34,35,36,37,38,39,40,41,42,43"/>
  <circle cx="74" cy="48" r="2" style="fill:#000" class="net_25,26,27,28,29,30,31,32,33,34,35,36,37,38,39,40,41,42,43"/>
  <line x1="74" x2="95.33333333333333" y1="48" y2="48" class="net_25,26,27,28,29,30,31,32,33,34,35,36,37,38,39,40,41,42,43"/>
  <line x1="293" x2="312" y1="65.5" y2="65.5" class="net_25,26,27,28,29,30,31,32,33,34,35,36,37,38,39,40,41,42,43"/>
  <line x1="312" x2="312" y1="65.5" y2="33" class="net_25,26,27,28,29,30,31,32,33,34,35,36,37,38,39,40,41,42,43"/>
  <line x1="312" x2="74" y1="33" y2="33" class="net_25,26,27,28,29,30,31,32,33,34,35,36,37,38,39,40,41,42,43"/>
  <line x1="74" x2="74" y1="33" y2="173" class="net_25,26,27,28,29,30,31,32,33,34,35,36,37,38,39,40,41,42,43"/>
  <circle cx="312" cy="65.5" r="2" style="fill:#000" class="net_25,26,27,28,29,30,31,32,33,34,35,36,37,38,39,40,41,42,43"/>
  <line x1="74" x2="95.33333333333333" y1="173" y2="173" class="net_25,26,27,28,29,30,31,32,33,34,35,36,37,38,39,40,41,42,43"/>
  <line x1="293" x2="341.6666666666667" y1="65.5" y2="65.5" class="net_25,26,27,28,29,30,31,32,33,34,35,36,37,38,39,40,41,42,43"/>
  <line x1="42" x2="95.33333333333333" y1="416.5" y2="416.5" class="net_98,99,100,101,102,103,104,105,106,107"/>
  <line x1="42" x2="95.33333333333333" y1="188" y2="188" class="net_108,109,110,111,112,113,114,115,116,117,118,119,120,121,122,123,124,125,126"/>
  <line x1="290" x2="322" y1="416.5" y2="416.5" class="net_127,128,129,130,131,132,133,134,135,136"/>
  <line x1="322" x2="322" y1="416.5" y2="239" class="net_127,128,129,130,131,132,133,134,135,136"/>
  <line x1="322" x2="341.6666666666667" y1="239" y2="239" class="net_127,128,129,130,131,132,133,134,135,136"/>
  <line x1="290" x2="312" y1="150.5" y2="150.5" class="net_137,138,139,140,141,142,143,144,145,146,147,148,149,150,151,152,153,154,155"/>
  <line x1="312" x2="312" y1="150.5" y2="80.5" class="net_137,138,139,140,141,142,143,144,145,146,147,148,149,150,151,152,153,154,155"/>
  <line x1="312" x2="341.6666666666667" y1="80.5" y2="80.5" class="net_137,138,139,140,141,142,143,144,145,146,147,148,149,150,151,152,153,154,155"/>
  <line x1="187" x2="263" y1="244" y2="244" class="net_2"/>
  <line x1="187" x2="235" y1="244" y2="244" class="net_2"/>
  <line x1="235" x2="235" y1="244" y2="85.5" class="net_2"/>
  <circle cx="235" cy="244" r="2" style="fill:#000" class="net_2"/>
  <line x1="235" x2="263" y1="85.5" y2="85.5" class="net_2"/>
  <line x1="194.33333333333334" x2="245" y1="309" y2="309" class="net_67,68,69,70,71,72,73,74,75,76"/>
  <line x1="245" x2="245" y1="309" y2="224" class="net_67,68,69,70,71,72,73,74,75,76"/>
  <line x1="245" x2="263" y1="224" y2="224" class="net_67,68,69,70,71,72,73,74,75,76"/>
  <line x1="194.33333333333334" x2="263" y1="65.5" y2="65.5" class="net_77,78,79,80,81,82,83,84,85,86,87,88,89,90,91,92,93,94,95"/>
  <line x1="117.33333333333333" x2="174.33333333333334" y1="299" y2="299" class="net_15,16,17,18,19,20,21,22,23,24"/>
  <line x1="119" x2="129" y1="366.5" y2="366.5" class="net_156,157,158,159,160,161,162,163,164,165"/>
  <line x1="129" x2="129" y1="366.5" y2="319" class="net_156,157,158,159,160,161,162,163,164,165"/>
  <line x1="129" x2="174.33333333333334" y1="319" y2="319" class="net_156,157,158,159,160,161,162,163,164,165"/>
  <line x1="117.33333333333333" x2="139" y1="409" y2="409" class="net_63"/>
  <line x1="139" x2="139" y1="409" y2="339" class="net_63"/>
  <line x1="139" x2="184.33333333333334" y1="339" y2="339" class="net_63"/>
  <line x1="184.33333333333334" x2="184.33333333333334" y1="339" y2="324" class="net_63"/>
  <line x1="117.33333333333333" x2="174.33333333333334" y1="55.5" y2="55.5" class="net_44,45,46,47,48,49,50,51,52,53,54,55,56,57,58,59,60,61,62"/>
  <line x1="119" x2="129" y1="123" y2="123" class="net_166,167,168,169,170,171,172,173,174,175,176,177,178,179,180,181,182,183,184"/>
  <line x1="129" x2="129" y1="123" y2="75.5" class="net_166,167,168,169,170,171,172,173,174,175,176,177,178,179,180,181,182,183,184"/>
  <line x1="129" x2="174.33333333333334" y1="75.5" y2="75.5" class="net_166,167,168,169,170,171,172,173,174,175,176,177,178,179,180,181,182,183,184"/>
  <line x1="117.33333333333333" x2="184.33333333333334" y1="180.5" y2="180.5" class="net_64"/>
  <line x1="184.33333333333334" x2="184.33333333333334" y1="180.5" y2="80.5" class="net_64"/>
  <line x1="367" x2="402" y1="140.5" y2="140.5" class="net_186"/>
  <line x1="367" x2="377" y1="140.5" y2="140.5" class="net_186"/>
  <line x1="377" x2="377" y1="140.5" y2="42" class="net_186"/>
  <circle cx="377" cy="140.5" r="2" style="fill:#000" class="net_186"/>
  <line x1="377" x2="402" y1="42" y2="42" class="net_186"/>
  <line x1="363.6666666666667" x2="412" y1="231.5" y2="231.5" class="net_65"/>
  <line x1="412" x2="412" y1="231.5" y2="145.5" class="net_65"/>
  <line x1="363.6666666666667" x2="412" y1="73" y2="73" class="net_66"/>
  <line x1="412" x2="412" y1="73" y2="47" class="net_66"/>
  <line x1="422" x2="457" y1="130.5" y2="130.5" class="net_3"/>
  <line x1="422" x2="457" y1="32" y2="32" class="net_4"/>
</svg>
